<svg xmlns="http://www.w3.org/2000/svg" xmlns:xlink="http://www.w3.org/1999/xlink" width="500" zoomAndPan="magnify" viewBox="0 0 375 374.999991" height="500" preserveAspectRatio="xMidYMid meet" version="1.0"><defs><clipPath id="d48075579b"><path d="M 82 198 L 136 198 L 136 312 L 82 312 Z M 82 198 " clip-rule="nonzero"/></clipPath><clipPath id="de3cb9e424"><path d="M 23.480469 209.589844 L 263.226562 174.867188 L 287.199219 340.390625 L 47.449219 375.113281 Z M 23.480469 209.589844 " clip-rule="nonzero"/></clipPath><clipPath id="b44346e5e3"><path d="M 23.480469 209.589844 L 263.226562 174.867188 L 287.199219 340.390625 L 47.449219 375.113281 Z M 23.480469 209.589844 " clip-rule="nonzero"/></clipPath><clipPath id="28c9487c35"><path d="M 102 194 L 148 194 L 148 305 L 102 305 Z M 102 194 " clip-rule="nonzero"/></clipPath><clipPath id="70d180718c"><path d="M 23.480469 209.589844 L 263.226562 174.867188 L 287.199219 340.390625 L 47.449219 375.113281 Z M 23.480469 209.589844 " clip-rule="nonzero"/></clipPath><clipPath id="d054915777"><path d="M 23.480469 209.589844 L 263.226562 174.867188 L 287.199219 340.390625 L 47.449219 375.113281 Z M 23.480469 209.589844 " clip-rule="nonzero"/></clipPath><clipPath id="a49948690e"><path d="M 96 198 L 110 198 L 110 219 L 96 219 Z M 96 198 " clip-rule="nonzero"/></clipPath><clipPath id="e2b261dc96"><path d="M 23.480469 209.589844 L 263.226562 174.867188 L 287.199219 340.390625 L 47.449219 375.113281 Z M 23.480469 209.589844 " clip-rule="nonzero"/></clipPath><clipPath id="e26e7caa7c"><path d="M 23.480469 209.589844 L 263.226562 174.867188 L 287.199219 340.390625 L 47.449219 375.113281 Z M 23.480469 209.589844 " clip-rule="nonzero"/></clipPath><clipPath id="d6d8622b55"><path d="M 28 230 L 43 230 L 43 239 L 28 239 Z M 28 230 " clip-rule="nonzero"/></clipPath><clipPath id="4edbae6c03"><path d="M 23.480469 209.589844 L 263.226562 174.867188 L 287.199219 340.390625 L 47.449219 375.113281 Z M 23.480469 209.589844 " clip-rule="nonzero"/></clipPath><clipPath id="24ec6e82a2"><path d="M 23.480469 209.589844 L 263.226562 174.867188 L 287.199219 340.390625 L 47.449219 375.113281 Z M 23.480469 209.589844 " clip-rule="nonzero"/></clipPath><clipPath id="5410d4426e"><path d="M 121 195 L 134 195 L 134 209 L 121 209 Z M 121 195 " clip-rule="nonzero"/></clipPath><clipPath id="51c217821d"><path d="M 23.480469 209.589844 L 263.226562 174.867188 L 287.199219 340.390625 L 47.449219 375.113281 Z M 23.480469 209.589844 " clip-rule="nonzero"/></clipPath><clipPath id="8278e8d884"><path d="M 23.480469 209.589844 L 263.226562 174.867188 L 287.199219 340.390625 L 47.449219 375.113281 Z M 23.480469 209.589844 " clip-rule="nonzero"/></clipPath><clipPath id="0e9483564f"><path d="M 28 192 L 281 192 L 281 342 L 28 342 Z M 28 192 " clip-rule="nonzero"/></clipPath><clipPath id="07b8a7c344"><path d="M 23.480469 209.589844 L 263.226562 174.867188 L 287.199219 340.390625 L 47.449219 375.113281 Z M 23.480469 209.589844 " clip-rule="nonzero"/></clipPath><clipPath id="7ecc11b569"><path d="M 23.480469 209.589844 L 263.226562 174.867188 L 287.199219 340.390625 L 47.449219 375.113281 Z M 23.480469 209.589844 " clip-rule="nonzero"/></clipPath><clipPath id="6a23126a3e"><path d="M 133 213 L 171 213 L 171 288 L 133 288 Z M 133 213 " clip-rule="nonzero"/></clipPath><clipPath id="242f73e26f"><path d="M 23.480469 209.589844 L 263.226562 174.867188 L 287.199219 340.390625 L 47.449219 375.113281 Z M 23.480469 209.589844 " clip-rule="nonzero"/></clipPath><clipPath id="7fdba85393"><path d="M 23.480469 209.589844 L 263.226562 174.867188 L 287.199219 340.390625 L 47.449219 375.113281 Z M 23.480469 209.589844 " clip-rule="nonzero"/></clipPath><clipPath id="ee937d7a16"><path d="M 154 232 L 202 232 L 202 246 L 154 246 Z M 154 232 " clip-rule="nonzero"/></clipPath><clipPath id="90b26c6abd"><path d="M 23.480469 209.589844 L 263.226562 174.867188 L 287.199219 340.390625 L 47.449219 375.113281 Z M 23.480469 209.589844 " clip-rule="nonzero"/></clipPath><clipPath id="520804654c"><path d="M 23.480469 209.589844 L 263.226562 174.867188 L 287.199219 340.390625 L 47.449219 375.113281 Z M 23.480469 209.589844 " clip-rule="nonzero"/></clipPath><clipPath id="246f6b84b0"><path d="M 131 222 L 138 222 L 138 230 L 131 230 Z M 131 222 " clip-rule="nonzero"/></clipPath><clipPath id="2588b62a87"><path d="M 23.480469 209.589844 L 263.226562 174.867188 L 287.199219 340.390625 L 47.449219 375.113281 Z M 23.480469 209.589844 " clip-rule="nonzero"/></clipPath><clipPath id="5d8b60d0b8"><path d="M 23.480469 209.589844 L 263.226562 174.867188 L 287.199219 340.390625 L 47.449219 375.113281 Z M 23.480469 209.589844 " clip-rule="nonzero"/></clipPath><clipPath id="c139cf1bea"><path d="M 113 213 L 119 213 L 119 218 L 113 218 Z M 113 213 " clip-rule="nonzero"/></clipPath><clipPath id="62c7122e50"><path d="M 23.480469 209.589844 L 263.226562 174.867188 L 287.199219 340.390625 L 47.449219 375.113281 Z M 23.480469 209.589844 " clip-rule="nonzero"/></clipPath><clipPath id="adff88b269"><path d="M 23.480469 209.589844 L 263.226562 174.867188 L 287.199219 340.390625 L 47.449219 375.113281 Z M 23.480469 209.589844 " clip-rule="nonzero"/></clipPath><clipPath id="76691dcfe9"><path d="M 125 241 L 140 241 L 140 253 L 125 253 Z M 125 241 " clip-rule="nonzero"/></clipPath><clipPath id="4e7577c541"><path d="M 23.480469 209.589844 L 263.226562 174.867188 L 287.199219 340.390625 L 47.449219 375.113281 Z M 23.480469 209.589844 " clip-rule="nonzero"/></clipPath><clipPath id="f13c522e66"><path d="M 23.480469 209.589844 L 263.226562 174.867188 L 287.199219 340.390625 L 47.449219 375.113281 Z M 23.480469 209.589844 " clip-rule="nonzero"/></clipPath><clipPath id="95f791adb7"><path d="M 136 193 L 145 193 L 145 206 L 136 206 Z M 136 193 " clip-rule="nonzero"/></clipPath><clipPath id="ac6733b200"><path d="M 23.480469 209.589844 L 263.226562 174.867188 L 287.199219 340.390625 L 47.449219 375.113281 Z M 23.480469 209.589844 " clip-rule="nonzero"/></clipPath><clipPath id="2e80fb6286"><path d="M 23.480469 209.589844 L 263.226562 174.867188 L 287.199219 340.390625 L 47.449219 375.113281 Z M 23.480469 209.589844 " clip-rule="nonzero"/></clipPath><clipPath id="4fe76efda0"><path d="M 168 252 L 173 252 L 173 264 L 168 264 Z M 168 252 " clip-rule="nonzero"/></clipPath><clipPath id="0e039a4353"><path d="M 23.480469 209.589844 L 263.226562 174.867188 L 287.199219 340.390625 L 47.449219 375.113281 Z M 23.480469 209.589844 " clip-rule="nonzero"/></clipPath><clipPath id="4b485249b8"><path d="M 23.480469 209.589844 L 263.226562 174.867188 L 287.199219 340.390625 L 47.449219 375.113281 Z M 23.480469 209.589844 " clip-rule="nonzero"/></clipPath><clipPath id="6bfc5206fe"><path d="M 229 72 L 288 72 L 288 182 L 229 182 Z M 229 72 " clip-rule="nonzero"/></clipPath><clipPath id="a11f52cfa0"><path d="M 351.515625 162.105469 L 116.554688 221.085938 L 75.835938 58.867188 L 310.792969 -0.113281 Z M 351.515625 162.105469 " clip-rule="nonzero"/></clipPath><clipPath id="604934055f"><path d="M 351.515625 162.105469 L 116.554688 221.085938 L 75.835938 58.867188 L 310.792969 -0.113281 Z M 351.515625 162.105469 " clip-rule="nonzero"/></clipPath><clipPath id="997d6d733c"><path d="M 218 80 L 270 80 L 270 189 L 218 189 Z M 218 80 " clip-rule="nonzero"/></clipPath><clipPath id="aad516a03e"><path d="M 351.515625 162.105469 L 116.554688 221.085938 L 75.835938 58.867188 L 310.792969 -0.113281 Z M 351.515625 162.105469 " clip-rule="nonzero"/></clipPath><clipPath id="84bf058d4e"><path d="M 351.515625 162.105469 L 116.554688 221.085938 L 75.835938 58.867188 L 310.792969 -0.113281 Z M 351.515625 162.105469 " clip-rule="nonzero"/></clipPath><clipPath id="fcac3949eb"><path d="M 266 161 L 279 161 L 279 182 L 266 182 Z M 266 161 " clip-rule="nonzero"/></clipPath><clipPath id="841ee1bf54"><path d="M 351.515625 162.105469 L 116.554688 221.085938 L 75.835938 58.867188 L 310.792969 -0.113281 Z M 351.515625 162.105469 " clip-rule="nonzero"/></clipPath><clipPath id="3eb9fe628c"><path d="M 351.515625 162.105469 L 116.554688 221.085938 L 75.835938 58.867188 L 310.792969 -0.113281 Z M 351.515625 162.105469 " clip-rule="nonzero"/></clipPath><clipPath id="7419a02a94"><path d="M 330 134 L 344 134 L 344 143 L 330 143 Z M 330 134 " clip-rule="nonzero"/></clipPath><clipPath id="da6769340c"><path d="M 351.515625 162.105469 L 116.554688 221.085938 L 75.835938 58.867188 L 310.792969 -0.113281 Z M 351.515625 162.105469 " clip-rule="nonzero"/></clipPath><clipPath id="40652a1d25"><path d="M 351.515625 162.105469 L 116.554688 221.085938 L 75.835938 58.867188 L 310.792969 -0.113281 Z M 351.515625 162.105469 " clip-rule="nonzero"/></clipPath><clipPath id="e483c4676c"><path d="M 243 173 L 255 173 L 255 188 L 243 188 Z M 243 173 " clip-rule="nonzero"/></clipPath><clipPath id="85da3355a0"><path d="M 351.515625 162.105469 L 116.554688 221.085938 L 75.835938 58.867188 L 310.792969 -0.113281 Z M 351.515625 162.105469 " clip-rule="nonzero"/></clipPath><clipPath id="171441fe16"><path d="M 351.515625 162.105469 L 116.554688 221.085938 L 75.835938 58.867188 L 310.792969 -0.113281 Z M 351.515625 162.105469 " clip-rule="nonzero"/></clipPath><clipPath id="82ef98f1d0"><path d="M 81 57 L 345 57 L 345 192 L 81 192 Z M 81 57 " clip-rule="nonzero"/></clipPath><clipPath id="747ccebbfe"><path d="M 351.515625 162.105469 L 116.554688 221.085938 L 75.835938 58.867188 L 310.792969 -0.113281 Z M 351.515625 162.105469 " clip-rule="nonzero"/></clipPath><clipPath id="38dbc14e8f"><path d="M 351.515625 162.105469 L 116.554688 221.085938 L 75.835938 58.867188 L 310.792969 -0.113281 Z M 351.515625 162.105469 " clip-rule="nonzero"/></clipPath><clipPath id="e727115420"><path d="M 197 98 L 242 98 L 242 170 L 197 170 Z M 197 98 " clip-rule="nonzero"/></clipPath><clipPath id="4cbb9bdcec"><path d="M 351.515625 162.105469 L 116.554688 221.085938 L 75.835938 58.867188 L 310.792969 -0.113281 Z M 351.515625 162.105469 " clip-rule="nonzero"/></clipPath><clipPath id="f9ad52c1af"><path d="M 351.515625 162.105469 L 116.554688 221.085938 L 75.835938 58.867188 L 310.792969 -0.113281 Z M 351.515625 162.105469 " clip-rule="nonzero"/></clipPath><clipPath id="90339b2996"><path d="M 170 144 L 219 144 L 219 153 L 170 153 Z M 170 144 " clip-rule="nonzero"/></clipPath><clipPath id="1dd7ef1a01"><path d="M 351.515625 162.105469 L 116.554688 221.085938 L 75.835938 58.867188 L 310.792969 -0.113281 Z M 351.515625 162.105469 " clip-rule="nonzero"/></clipPath><clipPath id="544007e544"><path d="M 351.515625 162.105469 L 116.554688 221.085938 L 75.835938 58.867188 L 310.792969 -0.113281 Z M 351.515625 162.105469 " clip-rule="nonzero"/></clipPath><clipPath id="d2cf9825a1"><path d="M 236 154 L 243 154 L 243 161 L 236 161 Z M 236 154 " clip-rule="nonzero"/></clipPath><clipPath id="f202aa61d8"><path d="M 351.515625 162.105469 L 116.554688 221.085938 L 75.835938 58.867188 L 310.792969 -0.113281 Z M 351.515625 162.105469 " clip-rule="nonzero"/></clipPath><clipPath id="8325054fc3"><path d="M 351.515625 162.105469 L 116.554688 221.085938 L 75.835938 58.867188 L 310.792969 -0.113281 Z M 351.515625 162.105469 " clip-rule="nonzero"/></clipPath><clipPath id="55023e5b5c"><path d="M 256 163 L 262 163 L 262 168 L 256 168 Z M 256 163 " clip-rule="nonzero"/></clipPath><clipPath id="7102513147"><path d="M 351.515625 162.105469 L 116.554688 221.085938 L 75.835938 58.867188 L 310.792969 -0.113281 Z M 351.515625 162.105469 " clip-rule="nonzero"/></clipPath><clipPath id="25944f2a08"><path d="M 351.515625 162.105469 L 116.554688 221.085938 L 75.835938 58.867188 L 310.792969 -0.113281 Z M 351.515625 162.105469 " clip-rule="nonzero"/></clipPath><clipPath id="cebc8a2265"><path d="M 232 131 L 247 131 L 247 141 L 232 141 Z M 232 131 " clip-rule="nonzero"/></clipPath><clipPath id="3b9096bdfc"><path d="M 351.515625 162.105469 L 116.554688 221.085938 L 75.835938 58.867188 L 310.792969 -0.113281 Z M 351.515625 162.105469 " clip-rule="nonzero"/></clipPath><clipPath id="adb5cfe9f5"><path d="M 351.515625 162.105469 L 116.554688 221.085938 L 75.835938 58.867188 L 310.792969 -0.113281 Z M 351.515625 162.105469 " clip-rule="nonzero"/></clipPath><clipPath id="cd13276d63"><path d="M 232 177 L 240 177 L 240 191 L 232 191 Z M 232 177 " clip-rule="nonzero"/></clipPath><clipPath id="661622761a"><path d="M 351.515625 162.105469 L 116.554688 221.085938 L 75.835938 58.867188 L 310.792969 -0.113281 Z M 351.515625 162.105469 " clip-rule="nonzero"/></clipPath><clipPath id="d679ea2a7c"><path d="M 351.515625 162.105469 L 116.554688 221.085938 L 75.835938 58.867188 L 310.792969 -0.113281 Z M 351.515625 162.105469 " clip-rule="nonzero"/></clipPath><clipPath id="9c5b80ca8c"><path d="M 198 122 L 204 122 L 204 135 L 198 135 Z M 198 122 " clip-rule="nonzero"/></clipPath><clipPath id="f93bf20451"><path d="M 351.515625 162.105469 L 116.554688 221.085938 L 75.835938 58.867188 L 310.792969 -0.113281 Z M 351.515625 162.105469 " clip-rule="nonzero"/></clipPath><clipPath id="ee0944e2c3"><path d="M 351.515625 162.105469 L 116.554688 221.085938 L 75.835938 58.867188 L 310.792969 -0.113281 Z M 351.515625 162.105469 " clip-rule="nonzero"/></clipPath><clipPath id="bc7577abbe"><path d="M 185 152.90625 L 188 152.90625 L 188 174 L 185 174 Z M 185 152.90625 " clip-rule="nonzero"/></clipPath><clipPath id="e82bb35b61"><path d="M 185 205 L 188 205 L 188 226.40625 L 185 226.40625 Z M 185 205 " clip-rule="nonzero"/></clipPath><clipPath id="3903982e20"><path d="M 202 188 L 223.464844 188 L 223.464844 191 L 202 191 Z M 202 188 " clip-rule="nonzero"/></clipPath><clipPath id="b16ee1f388"><path d="M 149.964844 188 L 171 188 L 171 191 L 149.964844 191 Z M 149.964844 188 " clip-rule="nonzero"/></clipPath><clipPath id="762902a27e"><path d="M 202 188 L 223.464844 188 L 223.464844 191 L 202 191 Z M 202 188 " clip-rule="nonzero"/></clipPath><clipPath id="c661cd4042"><path d="M 149.964844 188 L 171 188 L 171 191 L 149.964844 191 Z M 149.964844 188 " clip-rule="nonzero"/></clipPath></defs><g clip-path="url(#d48075579b)"><g clip-path="url(#de3cb9e424)"><g clip-path="url(#b44346e5e3)"><path fill="#937462" d="M 134.882812 311.148438 C 133.46875 311.355469 126.828125 311.449219 118.917969 300.738281 C 118.917969 300.738281 103.261719 284.496094 95.238281 279.007812 C 94.632812 278.808594 83.605469 270.574219 82.335938 261.792969 C 81.882812 258.675781 82.648438 255.964844 84.625 253.652344 C 85.429688 251.222656 94.570312 226.476562 95.804688 215.019531 C 96.164062 213.523438 98.933594 200.6875 104.757812 198.976562 C 106.984375 198.363281 109.453125 199.453125 111.523438 201.753906 L 111.847656 201.996094 C 112.210938 202.523438 117.898438 213.84375 113.960938 228.585938 L 111.207031 227.539062 C 114.824219 214.578125 110.152344 204.265625 109.378906 202.933594 C 108 201.398438 106.742188 200.710938 105.609375 200.875 C 102.253906 201.652344 99.394531 209.875 98.636719 214.609375 C 97.242188 226.957031 87.699219 252.917969 87.257812 253.851562 L 87.015625 254.175781 C 85.5625 256.121094 85 258.226562 85.328125 260.492188 C 86.433594 268.140625 96.8125 275.890625 97.09375 275.847656 C 105.117188 281.335938 120.488281 297.617188 121.136719 298.101562 C 129.050781 308.8125 134.675781 307.710938 134.675781 307.710938 L 135.367188 310.5 C 135.167969 311.109375 134.882812 311.148438 134.882812 311.148438 Z M 134.882812 311.148438 " fill-opacity="1" fill-rule="nonzero"/></g></g></g><g clip-path="url(#28c9487c35)"><g clip-path="url(#70d180718c)"><g clip-path="url(#d054915777)"><path fill="#937462" d="M 146.28125 304.003906 C 143.734375 304.375 137.296875 303.859375 130.878906 291.488281 C 130.878906 291.488281 115.214844 269.175781 107.148438 263.402344 C 106.5 262.917969 95.269531 253.269531 108.75 232.519531 C 108.75 232.519531 118.589844 214.613281 120.878906 206.472656 C 121.28125 205.257812 124.945312 194.605469 130.367188 194.109375 C 132.957031 194.023438 135.226562 195.71875 137.21875 199.480469 L 137.257812 199.761719 L 137.300781 200.046875 C 137.382812 200.613281 138.015625 214.980469 133.78125 221.664062 C 133.257812 224.054688 129.96875 239.277344 127.105469 245.476562 C 129.460938 247.738281 136.839844 254.765625 138.792969 260.265625 C 139.15625 260.792969 139.765625 260.992188 140.089844 261.234375 C 140.046875 260.953125 139.964844 260.386719 139.84375 259.535156 L 142.675781 259.125 C 142.839844 260.257812 143.25 263.089844 141.347656 263.945312 C 139.449219 264.800781 137.421875 262.777344 136.691406 261.726562 L 136.367188 261.484375 C 134.613281 255.378906 124.722656 246.980469 124.679688 246.695312 L 123.707031 245.96875 L 124.433594 244.996094 C 127.5 240.214844 131.390625 221.144531 131.351562 220.859375 L 131.550781 220.253906 C 135.101562 214.824219 134.753906 202.4375 134.710938 200.132812 C 133.65625 198.839844 132.195312 196.738281 130.496094 196.984375 C 127.664062 197.394531 124.476562 203.347656 123.308594 207.277344 C 121.019531 215.417969 111.421875 233 110.976562 233.933594 C 98.953125 252.734375 108.519531 260.890625 108.84375 261.132812 C 117.234375 267.148438 132.535156 288.933594 133.265625 289.984375 C 140.414062 303.410156 146.4375 301.089844 146.4375 301.089844 L 147.65625 303.515625 C 147.375 303.558594 146.847656 303.921875 146.28125 304.003906 Z M 146.28125 304.003906 " fill-opacity="1" fill-rule="nonzero"/></g></g></g><g clip-path="url(#a49948690e)"><g clip-path="url(#e2b261dc96)"><g clip-path="url(#e26e7caa7c)"><path fill="#937462" d="M 101.433594 217.964844 C 98.320312 218.414062 96.210938 215.828125 96.167969 215.546875 L 98.230469 213.800781 C 98.230469 213.800781 99.609375 215.335938 101.023438 215.132812 C 102.441406 214.925781 103.691406 213.589844 105.023438 210.792969 C 104.980469 210.511719 108.976562 204.148438 105.8125 200.269531 L 107.875 198.523438 C 111.851562 204.019531 107.453125 211.597656 107.210938 211.921875 C 106.003906 215.566406 103.984375 217.59375 101.433594 217.964844 Z M 101.433594 217.964844 " fill-opacity="1" fill-rule="nonzero"/></g></g></g><g clip-path="url(#d6d8622b55)"><g clip-path="url(#4edbae6c03)"><g clip-path="url(#24ec6e82a2)"><path fill="#937462" d="M 39.347656 238.523438 C 38.414062 236.054688 36.992188 234.238281 35.453125 233.59375 C 32.984375 232.503906 30.316406 234.046875 30.316406 234.046875 L 28.8125 231.664062 C 29.09375 231.621094 32.53125 229.390625 36.5 230.839844 C 38.972656 231.925781 40.714844 233.988281 42.097656 237.546875 Z M 39.347656 238.523438 " fill-opacity="1" fill-rule="nonzero"/></g></g></g><g clip-path="url(#5410d4426e)"><g clip-path="url(#51c217821d)"><g clip-path="url(#8278e8d884)"><path fill="#937462" d="M 122.257812 208.007812 L 121.847656 205.175781 C 122.132812 205.132812 128.929688 204.148438 131.140625 195.445312 L 133.851562 196.207031 C 131 206.453125 123.109375 207.886719 122.257812 208.007812 Z M 122.257812 208.007812 " fill-opacity="1" fill-rule="nonzero"/></g></g></g><g clip-path="url(#0e9483564f)"><g clip-path="url(#07b8a7c344)"><g clip-path="url(#7ecc11b569)"><path fill="#937462" d="M 280.925781 341.183594 L 278.65625 339.488281 C 278.007812 339.003906 225.277344 300.371094 187.285156 305.585938 C 175.429688 307.589844 142.980469 313.15625 137.6875 316.527344 C 137.402344 316.566406 122.035156 322.261719 113.710938 308.722656 C 113.386719 308.480469 77.765625 264.1875 65.246094 257.617188 L 64.921875 257.375 C 64.597656 257.132812 39.992188 236.984375 29.503906 234.453125 L 28.289062 234.050781 L 28.167969 233.203125 C 28.125 232.917969 27.0625 227.578125 30.902344 224.128906 C 34.257812 221.332031 39.761719 221.402344 47.375 224.058594 C 48.347656 224.785156 56.492188 229.101562 59.128906 233.34375 C 62.492188 234.59375 80.714844 240.628906 87.851562 247.980469 L 88.21875 248.507812 L 88.664062 249.597656 L 86.199219 250.535156 L 85.792969 249.726562 C 78.371094 242.414062 58.082031 236.097656 57.757812 235.855469 L 57.152344 235.65625 L 56.785156 235.128906 C 55.445312 231.855469 48.796875 227.898438 46.328125 226.8125 C 39.929688 224.558594 34.992188 224.40625 32.6875 226.472656 C 30.871094 227.894531 30.671875 230.527344 30.878906 231.941406 C 42.054688 235.238281 64.347656 253.410156 66.335938 255.144531 C 79.503906 262.203125 114.351562 305.160156 115.773438 306.976562 C 122.957031 318.660156 135.617188 314.222656 136.183594 314.140625 C 142.8125 310 184.890625 303.039062 186.589844 302.792969 C 221.46875 298.03125 266.816406 327.609375 277.757812 335.277344 L 272.613281 269.804688 C 253.667969 266.765625 226.191406 248.765625 224.933594 248.082031 C 213.0625 239.96875 174.269531 251.660156 174.027344 251.984375 L 173.460938 252.066406 L 172.8125 251.582031 C 170.261719 249.925781 162.972656 249.535156 160.34375 249.339844 L 158.601562 249.300781 L 158.964844 247.804688 C 159.765625 243.351562 155.148438 241.414062 155.148438 241.414062 L 153.933594 241.011719 L 154.050781 239.839844 C 154.894531 235.667969 152.566406 225.597656 151.507812 222.277344 C 150.367188 218.394531 149.421875 209.859375 149.378906 209.574219 C 149 200.953125 146.726562 197.234375 146.359375 196.710938 C 144.453125 195.539062 142.632812 194.9375 141.257812 195.425781 C 138.507812 196.402344 137.097656 200.652344 137.097656 200.652344 L 134.386719 199.890625 C 134.34375 199.605469 136.195312 194.421875 140.320312 192.957031 C 142.789062 192.023438 145.21875 192.828125 148.097656 194.722656 L 148.421875 194.964844 C 148.460938 195.25 151.625 199.128906 152.253906 209.449219 C 152.253906 209.449219 153.199219 217.984375 154.300781 221.585938 C 154.382812 222.152344 157.722656 233.234375 157.167969 239.386719 C 159.355469 240.515625 161.746094 243.0625 161.996094 246.785156 C 164.910156 246.941406 170.742188 247.253906 173.902344 249.109375 C 179.160156 247.480469 214.148438 237.496094 226.628906 245.8125 C 226.953125 246.054688 256.011719 264.980469 274.269531 267.25 L 275.441406 267.371094 Z M 280.925781 341.183594 " fill-opacity="1" fill-rule="nonzero"/></g></g></g><g clip-path="url(#6a23126a3e)"><g clip-path="url(#242f73e26f)"><g clip-path="url(#7fdba85393)"><path fill="#937462" d="M 166.445312 287.492188 C 162.480469 288.066406 156.734375 288.320312 151.953125 285.253906 C 148.46875 283.15625 146.234375 279.71875 145.578125 275.1875 C 145.578125 275.1875 141.992188 262.40625 137.804688 251.445312 C 137.4375 250.921875 131.300781 236.484375 134.359375 227.65625 C 134.359375 227.65625 135.15625 221.175781 133.605469 214.460938 L 136.394531 213.769531 C 138.027344 221.050781 137.273438 227.8125 137.03125 228.136719 C 134.171875 236.355469 140.230469 250.226562 140.269531 250.511719 C 144.5 261.753906 148.085938 274.535156 148.128906 274.820312 C 148.984375 278.742188 150.53125 281.410156 153.367188 283.027344 C 159.726562 287.019531 169.4375 284.167969 169.71875 284.128906 L 170.371094 286.636719 C 170.414062 286.917969 168.710938 287.164062 166.445312 287.492188 Z M 166.445312 287.492188 " fill-opacity="1" fill-rule="nonzero"/></g></g></g><g clip-path="url(#ee937d7a16)"><g clip-path="url(#90b26c6abd)"><g clip-path="url(#520804654c)"><path fill="#937462" d="M 200.890625 245.78125 C 200.605469 245.820312 181.207031 239.664062 171.941406 239.5625 C 170.484375 239.484375 158.300781 239.222656 154.445312 234.578125 L 156.507812 232.832031 C 158.980469 235.945312 168.617188 236.574219 172.097656 236.648438 C 181.648438 236.710938 201.003906 242.582031 201.9375 243.027344 Z M 200.890625 245.78125 " fill-opacity="1" fill-rule="nonzero"/></g></g></g><g clip-path="url(#246f6b84b0)"><g clip-path="url(#2588b62a87)"><g clip-path="url(#5d8b60d0b8)"><path fill="#937462" d="M 136.871094 229.027344 L 134.640625 227.613281 C 134.601562 227.332031 134.394531 225.914062 131.558594 224.300781 L 132.972656 222.070312 C 138.726562 225.867188 137.355469 228.378906 136.871094 229.027344 Z M 136.871094 229.027344 " fill-opacity="1" fill-rule="nonzero"/></g></g></g><g clip-path="url(#c139cf1bea)"><g clip-path="url(#62c7122e50)"><g clip-path="url(#adff88b269)"><path fill="#937462" d="M 117.015625 217.730469 C 115.679688 216.480469 113.613281 216.199219 113.613281 216.199219 L 114.09375 213.527344 C 114.09375 213.527344 116.808594 214.292969 118.753906 215.746094 Z M 117.015625 217.730469 " fill-opacity="1" fill-rule="nonzero"/></g></g></g><g clip-path="url(#76691dcfe9)"><g clip-path="url(#4e7577c541)"><g clip-path="url(#f13c522e66)"><path fill="#937462" d="M 138.816406 252.457031 C 133.191406 251.535156 126.292969 243.859375 125.929688 243.332031 L 127.988281 241.589844 C 129.734375 243.648438 135.453125 249.183594 139.015625 249.824219 Z M 138.816406 252.457031 " fill-opacity="1" fill-rule="nonzero"/></g></g></g><g clip-path="url(#95f791adb7)"><g clip-path="url(#ac6733b200)"><g clip-path="url(#2e80fb6286)"><path fill="#937462" d="M 136.988281 205.875 L 136.578125 203.042969 L 136.78125 204.457031 L 136.578125 203.042969 C 137.144531 202.960938 143.007812 201.53125 141.578125 193.644531 L 144.410156 193.234375 C 145.96875 203.996094 136.988281 205.875 136.988281 205.875 Z M 136.988281 205.875 " fill-opacity="1" fill-rule="nonzero"/></g></g></g><g clip-path="url(#4fe76efda0)"><g clip-path="url(#0e039a4353)"><g clip-path="url(#4b485249b8)"><path fill="#937462" d="M 168 252.277344 C 172.292969 253.96875 174.207031 261.210938 169.679688 263.890625 C 170.480469 259.4375 168.9375 256.769531 168 252.277344 Z M 168 252.277344 " fill-opacity="1" fill-rule="nonzero"/></g></g></g><g clip-path="url(#6bfc5206fe)"><g clip-path="url(#a11f52cfa0)"><g clip-path="url(#604934055f)"><path fill="#937462" d="M 230.335938 72.429688 C 231.726562 72.082031 238.320312 71.3125 247.28125 81.160156 C 247.28125 81.160156 264.511719 95.71875 273.050781 100.363281 C 273.675781 100.5 285.484375 107.570312 287.644531 116.171875 C 288.410156 119.226562 287.925781 122.003906 286.195312 124.503906 C 285.640625 127.003906 279.070312 152.554688 279.011719 164.074219 C 278.804688 165.601562 277.359375 178.652344 271.742188 180.949219 C 269.589844 181.785156 267.019531 180.953125 264.730469 178.875 L 264.382812 178.664062 C 263.964844 178.179688 257.152344 167.496094 259.566406 152.433594 L 262.414062 153.195312 C 260.136719 166.453125 265.835938 176.234375 266.738281 177.484375 C 268.269531 178.871094 269.589844 179.425781 270.699219 179.144531 C 273.960938 178.03125 275.964844 169.5625 276.238281 164.773438 C 276.363281 152.347656 283.210938 125.546875 283.554688 124.578125 L 283.765625 124.230469 C 285.011719 122.144531 285.355469 119.992188 284.800781 117.773438 C 282.917969 110.277344 271.804688 103.625 271.527344 103.695312 C 262.984375 99.054688 246.035156 84.421875 245.339844 84.007812 C 236.378906 74.160156 230.894531 75.832031 230.894531 75.832031 L 229.921875 73.125 C 230.058594 72.5 230.335938 72.429688 230.335938 72.429688 Z M 230.335938 72.429688 " fill-opacity="1" fill-rule="nonzero"/></g></g></g><g clip-path="url(#997d6d733c)"><g clip-path="url(#aad516a03e)"><g clip-path="url(#84bf058d4e)"><path fill="#937462" d="M 219.726562 80.699219 C 222.222656 80.074219 228.679688 79.929688 236.324219 91.582031 C 236.324219 91.582031 254.183594 112.179688 262.796875 117.101562 C 263.488281 117.515625 275.644531 125.972656 264.351562 147.984375 C 264.351562 147.984375 256.386719 166.804688 254.9375 175.132812 C 254.660156 176.382812 252.105469 187.351562 246.761719 188.398438 C 244.191406 188.75 241.761719 187.292969 239.398438 183.757812 L 239.328125 183.480469 L 239.257812 183.199219 C 239.121094 182.644531 237.023438 168.417969 240.558594 161.335938 C 240.832031 158.90625 242.550781 143.425781 244.769531 136.96875 C 242.199219 134.957031 234.140625 128.71875 231.636719 123.445312 C 231.21875 122.960938 230.59375 122.824219 230.246094 122.613281 C 230.316406 122.890625 230.457031 123.445312 230.664062 124.28125 L 227.890625 124.976562 C 227.609375 123.867188 226.914062 121.089844 228.71875 120.046875 C 230.519531 119.003906 232.746094 120.808594 233.578125 121.777344 L 233.925781 121.984375 C 236.289062 127.882812 246.988281 135.230469 247.058594 135.507812 L 248.097656 136.132812 L 247.476562 137.175781 C 244.910156 142.242188 242.988281 161.609375 243.054688 161.886719 L 242.917969 162.511719 C 239.9375 168.277344 241.546875 180.5625 241.828125 182.851562 C 243.007812 184.03125 244.675781 185.972656 246.339844 185.554688 C 249.117188 184.859375 251.679688 178.609375 252.4375 174.582031 C 253.886719 166.25 261.644531 147.78125 261.992188 146.808594 C 272.035156 126.878906 261.6875 119.738281 261.339844 119.53125 C 252.382812 114.402344 234.941406 94.289062 234.105469 93.320312 C 225.625 80.695312 219.867188 83.617188 219.867188 83.617188 L 218.40625 81.328125 C 218.683594 81.257812 219.171875 80.839844 219.726562 80.699219 Z M 219.726562 80.699219 " fill-opacity="1" fill-rule="nonzero"/></g></g></g><g clip-path="url(#fcac3949eb)"><g clip-path="url(#841ee1bf54)"><g clip-path="url(#3eb9fe628c)"><path fill="#937462" d="M 273.109375 161.722656 C 276.164062 160.953125 278.527344 163.3125 278.597656 163.589844 L 276.722656 165.535156 C 276.722656 165.535156 275.195312 164.148438 273.808594 164.496094 C 272.417969 164.84375 271.3125 166.304688 270.273438 169.21875 C 270.34375 169.496094 267.015625 176.234375 270.558594 179.769531 L 268.6875 181.714844 C 264.171875 176.652344 267.773438 168.667969 267.980469 168.320312 C 268.808594 164.570312 270.613281 162.347656 273.109375 161.722656 Z M 273.109375 161.722656 " fill-opacity="1" fill-rule="nonzero"/></g></g></g><g clip-path="url(#7419a02a94)"><g clip-path="url(#da6769340c)"><g clip-path="url(#40652a1d25)"><path fill="#937462" d="M 332.777344 134.941406 C 333.960938 137.300781 335.558594 138.964844 337.15625 139.449219 C 339.722656 140.277344 342.222656 138.472656 342.222656 138.472656 L 343.957031 140.691406 C 343.679688 140.761719 340.492188 143.332031 336.394531 142.292969 C 333.824219 141.464844 331.878906 139.59375 330.140625 136.191406 Z M 332.777344 134.941406 " fill-opacity="1" fill-rule="nonzero"/></g></g></g><g clip-path="url(#e483c4676c)"><g clip-path="url(#85da3355a0)"><g clip-path="url(#171441fe16)"><path fill="#937462" d="M 253.410156 173.746094 L 254.105469 176.523438 C 253.828125 176.59375 247.167969 178.265625 245.855469 187.152344 L 243.078125 186.667969 C 244.875 176.183594 252.578125 173.957031 253.410156 173.746094 Z M 253.410156 173.746094 " fill-opacity="1" fill-rule="nonzero"/></g></g></g><g clip-path="url(#82ef98f1d0)"><g clip-path="url(#747ccebbfe)"><g clip-path="url(#38dbc14e8f)"><path fill="#937462" d="M 81.992188 57.441406 L 84.425781 58.898438 C 85.117188 59.3125 141.511719 92.367188 178.777344 83.308594 C 190.363281 80.105469 222.078125 71.257812 227 67.367188 C 227.277344 67.296875 241.988281 60.0625 251.648438 72.6875 C 251.996094 72.894531 291.945312 113.324219 305.066406 118.585938 L 305.414062 118.792969 C 305.761719 119.003906 332.292969 136.539062 342.984375 137.984375 L 344.234375 138.261719 L 344.441406 139.09375 C 344.511719 139.371094 346.113281 144.574219 342.648438 148.398438 C 339.597656 151.523438 334.113281 152.015625 326.269531 150.148438 C 325.226562 149.523438 316.6875 146.0625 313.628906 142.109375 C 310.15625 141.210938 291.410156 137.0625 283.5625 130.476562 L 283.144531 129.992188 L 282.589844 128.949219 L 284.949219 127.769531 L 285.433594 128.53125 C 293.5625 135.046875 314.386719 139.261719 314.734375 139.46875 L 315.359375 139.609375 L 315.777344 140.09375 C 317.445312 143.214844 324.460938 146.472656 327.027344 147.300781 C 333.625 148.890625 338.550781 148.539062 340.632812 146.246094 C 342.296875 144.648438 342.226562 142.011719 341.875 140.625 C 330.421875 138.484375 306.390625 122.679688 304.238281 121.15625 C 290.417969 115.476562 251.371094 76.296875 249.773438 74.632812 C 241.433594 63.742188 229.292969 69.445312 228.738281 69.585938 C 222.566406 74.382812 181.417969 85.597656 179.75 86.015625 C 145.539062 94.308594 97.414062 69.503906 85.746094 62.992188 L 97.539062 127.601562 C 116.699219 128.691406 145.863281 143.796875 147.183594 144.351562 C 159.824219 151.210938 197.21875 135.625 197.429688 135.277344 L 197.984375 135.140625 L 198.679688 135.554688 C 201.386719 136.941406 208.675781 136.585938 211.3125 136.515625 L 213.046875 136.375 L 212.839844 137.902344 C 212.496094 142.414062 217.289062 143.867188 217.289062 143.867188 L 218.539062 144.144531 L 218.539062 145.324219 C 218.125 149.558594 221.46875 159.339844 222.859375 162.53125 C 224.390625 166.277344 226.203125 174.675781 226.273438 174.953125 C 227.527344 183.488281 230.171875 186.957031 230.585938 187.445312 C 232.601562 188.414062 234.476562 188.828125 235.792969 188.203125 C 238.429688 186.949219 239.398438 182.578125 239.398438 182.578125 L 242.175781 183.058594 C 242.242188 183.335938 240.929688 188.683594 236.976562 190.5625 C 234.617188 191.742188 232.117188 191.191406 229.0625 189.597656 L 228.714844 189.390625 C 228.644531 189.109375 225.101562 185.574219 223.425781 175.371094 C 223.425781 175.371094 221.613281 166.976562 220.152344 163.507812 C 220.011719 162.953125 215.5625 152.265625 215.484375 146.089844 C 213.195312 145.1875 210.554688 142.902344 209.925781 139.222656 C 207.011719 139.363281 201.179688 139.648438 197.847656 138.125 C 192.78125 140.28125 158.992188 153.777344 145.726562 146.78125 C 145.382812 146.574219 114.546875 130.707031 96.152344 130.308594 L 94.972656 130.308594 Z M 81.992188 57.441406 " fill-opacity="1" fill-rule="nonzero"/></g></g></g><g clip-path="url(#e727115420)"><g clip-path="url(#4cbb9bdcec)"><g clip-path="url(#f9ad52c1af)"><path fill="#937462" d="M 201.351562 99.179688 C 205.234375 98.207031 210.925781 97.367188 215.996094 99.929688 C 219.675781 101.664062 222.246094 104.851562 223.363281 109.292969 C 223.363281 109.292969 228.234375 121.644531 233.519531 132.121094 C 233.933594 132.605469 241.515625 146.34375 239.371094 155.4375 C 239.371094 155.4375 239.238281 161.960938 241.464844 168.484375 L 238.761719 169.457031 C 236.394531 162.378906 236.457031 155.578125 236.664062 155.230469 C 238.667969 146.761719 231.230469 133.582031 231.160156 133.304688 C 225.804688 122.550781 220.933594 110.199219 220.863281 109.921875 C 219.613281 106.105469 217.804688 103.609375 214.820312 102.292969 C 208.082031 98.964844 198.714844 102.792969 198.4375 102.863281 L 197.535156 100.433594 C 197.464844 100.15625 199.128906 99.738281 201.351562 99.179688 Z M 201.351562 99.179688 " fill-opacity="1" fill-rule="nonzero"/></g></g></g><g clip-path="url(#90339b2996)"><g clip-path="url(#1dd7ef1a01)"><g clip-path="url(#544007e544)"><path fill="#937462" d="M 171.339844 144.1875 C 171.617188 144.117188 191.539062 148.265625 200.773438 147.421875 C 202.230469 147.351562 214.375 146.367188 218.683594 150.597656 L 216.808594 152.542969 C 214.03125 149.699219 204.382812 150.054688 200.914062 150.335938 C 191.40625 151.25 171.550781 147.378906 170.578125 147.035156 Z M 171.339844 144.1875 " fill-opacity="1" fill-rule="nonzero"/></g></g></g><g clip-path="url(#d2cf9825a1)"><g clip-path="url(#f202aa61d8)"><g clip-path="url(#8325054fc3)"><path fill="#937462" d="M 236.734375 154.328125 L 239.09375 155.507812 C 239.164062 155.785156 239.511719 157.171875 242.496094 158.488281 L 241.320312 160.847656 C 235.207031 157.660156 236.316406 155.023438 236.734375 154.328125 Z M 236.734375 154.328125 " fill-opacity="1" fill-rule="nonzero"/></g></g></g><g clip-path="url(#55023e5b5c)"><g clip-path="url(#7102513147)"><g clip-path="url(#25944f2a08)"><path fill="#937462" d="M 257.632812 163.539062 C 259.09375 164.648438 261.175781 164.71875 261.175781 164.71875 L 260.96875 167.425781 C 260.96875 167.425781 258.191406 166.941406 256.109375 165.695312 Z M 257.632812 163.539062 " fill-opacity="1" fill-rule="nonzero"/></g></g></g><g clip-path="url(#cebc8a2265)"><g clip-path="url(#3b9096bdfc)"><g clip-path="url(#adb5cfe9f5)"><path fill="#937462" d="M 232.40625 131.21875 C 238.097656 131.5625 245.742188 138.496094 246.15625 138.980469 L 244.285156 140.925781 C 242.339844 139.054688 236.089844 134.132812 232.480469 133.855469 Z M 232.40625 131.21875 " fill-opacity="1" fill-rule="nonzero"/></g></g></g><g clip-path="url(#cd13276d63)"><g clip-path="url(#661622761a)"><g clip-path="url(#d679ea2a7c)"><path fill="#937462" d="M 238.976562 177.371094 L 239.671875 180.148438 L 239.324219 178.757812 L 239.671875 180.148438 C 239.117188 180.285156 233.429688 182.304688 235.65625 190.007812 L 232.878906 190.703125 C 230.234375 180.15625 238.976562 177.371094 238.976562 177.371094 Z M 238.976562 177.371094 " fill-opacity="1" fill-rule="nonzero"/></g></g></g><g clip-path="url(#9c5b80ca8c)"><g clip-path="url(#f93bf20451)"><g clip-path="url(#ee0944e2c3)"><path fill="#937462" d="M 203.398438 134.371094 C 198.953125 133.125 196.308594 126.117188 200.539062 122.988281 C 200.195312 127.503906 202.003906 130 203.398438 134.371094 Z M 203.398438 134.371094 " fill-opacity="1" fill-rule="nonzero"/></g></g></g><g clip-path="url(#bc7577abbe)"><path fill="#937462" d="M 186.664062 173.820312 C 186.257812 173.820312 185.929688 173.496094 185.929688 173.089844 L 185.929688 153.628906 C 185.929688 153.222656 186.257812 152.898438 186.664062 152.898438 C 187.070312 152.898438 187.394531 153.222656 187.394531 153.628906 L 187.394531 173.089844 C 187.394531 173.496094 187.070312 173.820312 186.664062 173.820312 " fill-opacity="1" fill-rule="nonzero"/></g><g clip-path="url(#e82bb35b61)"><path fill="#937462" d="M 186.664062 226.289062 C 186.257812 226.289062 185.929688 225.964844 185.929688 225.558594 L 185.929688 206.097656 C 185.929688 205.691406 186.257812 205.367188 186.664062 205.367188 C 187.070312 205.367188 187.394531 205.691406 187.394531 206.097656 L 187.394531 225.558594 C 187.394531 225.964844 187.070312 226.289062 186.664062 226.289062 " fill-opacity="1" fill-rule="nonzero"/></g><g clip-path="url(#3903982e20)"><path fill="#937462" d="M 222.628906 190.324219 L 203.164062 190.324219 C 202.761719 190.324219 202.433594 190 202.433594 189.59375 C 202.433594 189.191406 202.761719 188.863281 203.164062 188.863281 L 222.628906 188.863281 C 223.035156 188.863281 223.359375 189.191406 223.359375 189.59375 C 223.359375 190 223.035156 190.324219 222.628906 190.324219 " fill-opacity="1" fill-rule="nonzero"/></g><g clip-path="url(#b16ee1f388)"><path fill="#937462" d="M 170.160156 190.324219 L 150.699219 190.324219 C 150.292969 190.324219 149.96875 190 149.96875 189.59375 C 149.96875 189.191406 150.292969 188.863281 150.699219 188.863281 L 170.160156 188.863281 C 170.566406 188.863281 170.890625 189.191406 170.890625 189.59375 C 170.890625 190 170.566406 190.324219 170.160156 190.324219 " fill-opacity="1" fill-rule="nonzero"/></g><g clip-path="url(#762902a27e)"><path fill="#937462" d="M 222.628906 190.324219 L 203.164062 190.324219 C 202.761719 190.324219 202.433594 190 202.433594 189.59375 C 202.433594 189.191406 202.761719 188.863281 203.164062 188.863281 L 222.628906 188.863281 C 223.035156 188.863281 223.359375 189.191406 223.359375 189.59375 C 223.359375 190 223.035156 190.324219 222.628906 190.324219 " fill-opacity="1" fill-rule="nonzero"/></g><g clip-path="url(#c661cd4042)"><path fill="#937462" d="M 170.160156 190.324219 L 150.699219 190.324219 C 150.292969 190.324219 149.96875 190 149.96875 189.59375 C 149.96875 189.191406 150.292969 188.863281 150.699219 188.863281 L 170.160156 188.863281 C 170.566406 188.863281 170.890625 189.191406 170.890625 189.59375 C 170.890625 190 170.566406 190.324219 170.160156 190.324219 " fill-opacity="1" fill-rule="nonzero"/></g><path fill="#937462" d="M 198.335938 178.65625 C 198.144531 178.65625 197.957031 178.585938 197.8125 178.441406 C 197.527344 178.15625 197.527344 177.695312 197.8125 177.410156 L 211.578125 163.644531 C 211.863281 163.359375 212.328125 163.359375 212.613281 163.644531 C 212.898438 163.933594 212.898438 164.394531 212.613281 164.679688 L 198.851562 178.441406 C 198.707031 178.585938 198.519531 178.65625 198.335938 178.65625 " fill-opacity="1" fill-rule="nonzero"/><path fill="#937462" d="M 161.230469 215.757812 C 161.046875 215.757812 160.859375 215.6875 160.714844 215.542969 C 160.429688 215.257812 160.429688 214.792969 160.714844 214.507812 L 174.476562 200.746094 C 174.761719 200.460938 175.226562 200.460938 175.511719 200.746094 C 175.796875 201.03125 175.796875 201.496094 175.511719 201.78125 L 161.75 215.542969 C 161.609375 215.6875 161.417969 215.757812 161.230469 215.757812 " fill-opacity="1" fill-rule="nonzero"/><path fill="#937462" d="M 212.09375 215.757812 C 211.90625 215.757812 211.71875 215.6875 211.578125 215.542969 L 197.8125 201.78125 C 197.527344 201.496094 197.527344 201.03125 197.8125 200.746094 C 198.101562 200.460938 198.566406 200.460938 198.851562 200.746094 L 212.613281 214.507812 C 212.898438 214.792969 212.898438 215.257812 212.613281 215.542969 C 212.46875 215.6875 212.285156 215.757812 212.09375 215.757812 " fill-opacity="1" fill-rule="nonzero"/><path fill="#937462" d="M 174.992188 178.65625 C 174.808594 178.65625 174.621094 178.585938 174.476562 178.441406 L 160.714844 164.679688 C 160.429688 164.394531 160.429688 163.933594 160.714844 163.644531 C 161.003906 163.359375 161.464844 163.359375 161.75 163.644531 L 175.511719 177.410156 C 175.796875 177.695312 175.796875 178.15625 175.511719 178.441406 C 175.367188 178.585938 175.179688 178.65625 174.992188 178.65625 " fill-opacity="1" fill-rule="nonzero"/><path fill="#937462" d="M 201.964844 184.144531 C 201.675781 184.144531 201.402344 183.96875 201.285156 183.683594 C 201.136719 183.3125 201.316406 182.882812 201.6875 182.734375 L 219.734375 175.4375 C 220.109375 175.285156 220.535156 175.46875 220.6875 175.84375 C 220.839844 176.21875 220.65625 176.644531 220.285156 176.796875 L 202.238281 184.089844 C 202.148438 184.125 202.054688 184.144531 201.964844 184.144531 " fill-opacity="1" fill-rule="nonzero"/><path fill="#937462" d="M 153.320312 203.804688 C 153.03125 203.804688 152.757812 203.632812 152.640625 203.34375 C 152.488281 202.96875 152.671875 202.542969 153.042969 202.390625 L 171.089844 195.097656 C 171.460938 194.945312 171.890625 195.128906 172.042969 195.503906 C 172.195312 195.878906 172.011719 196.304688 171.636719 196.457031 L 153.59375 203.746094 C 153.503906 203.785156 153.410156 203.804688 153.320312 203.804688 " fill-opacity="1" fill-rule="nonzero"/><path fill="#937462" d="M 200.140625 223.671875 C 199.847656 223.671875 199.574219 223.496094 199.460938 223.214844 L 192.167969 205.167969 C 192.015625 204.792969 192.199219 204.367188 192.574219 204.214844 C 192.949219 204.066406 193.375 204.246094 193.527344 204.621094 L 200.816406 222.664062 C 200.96875 223.039062 200.789062 223.464844 200.414062 223.617188 C 200.324219 223.652344 200.230469 223.671875 200.140625 223.671875 " fill-opacity="1" fill-rule="nonzero"/><path fill="#937462" d="M 180.480469 175.023438 C 180.191406 175.023438 179.917969 174.855469 179.800781 174.566406 L 172.507812 156.523438 C 172.355469 156.148438 172.539062 155.722656 172.910156 155.570312 C 173.289062 155.417969 173.714844 155.601562 173.867188 155.976562 L 181.160156 174.019531 C 181.308594 174.394531 181.128906 174.820312 180.753906 174.972656 C 180.664062 175.007812 180.570312 175.023438 180.480469 175.023438 " fill-opacity="1" fill-rule="nonzero"/><path fill="#937462" d="M 220.140625 203.472656 C 220.050781 203.472656 219.960938 203.457031 219.875 203.421875 L 201.757812 196.304688 C 201.382812 196.160156 201.195312 195.734375 201.34375 195.359375 C 201.492188 194.980469 201.914062 194.796875 202.292969 194.945312 L 220.410156 202.058594 C 220.785156 202.207031 220.96875 202.628906 220.824219 203.007812 C 220.707031 203.292969 220.433594 203.472656 220.140625 203.472656 " fill-opacity="1" fill-rule="nonzero"/><path fill="#937462" d="M 171.300781 184.292969 C 171.214844 184.292969 171.125 184.28125 171.035156 184.246094 L 152.917969 177.128906 C 152.542969 176.984375 152.359375 176.558594 152.503906 176.179688 C 152.652344 175.804688 153.078125 175.621094 153.453125 175.769531 L 171.570312 182.882812 C 171.945312 183.03125 172.132812 183.453125 171.984375 183.832031 C 171.871094 184.117188 171.59375 184.292969 171.300781 184.292969 " fill-opacity="1" fill-rule="nonzero"/><path fill="#937462" d="M 173.519531 223.800781 C 173.429688 223.800781 173.339844 223.789062 173.25 223.753906 C 172.875 223.605469 172.691406 223.179688 172.839844 222.804688 L 179.953125 204.6875 C 180.097656 204.3125 180.523438 204.125 180.898438 204.273438 C 181.277344 204.421875 181.460938 204.847656 181.3125 205.222656 L 174.199219 223.339844 C 174.089844 223.625 173.8125 223.800781 173.519531 223.800781 " fill-opacity="1" fill-rule="nonzero"/><path fill="#937462" d="M 192.695312 174.964844 C 192.605469 174.964844 192.515625 174.949219 192.425781 174.914062 C 192.050781 174.765625 191.867188 174.339844 192.015625 173.964844 L 199.128906 155.851562 C 199.277344 155.472656 199.699219 155.289062 200.078125 155.433594 C 200.453125 155.582031 200.636719 156.007812 200.492188 156.382812 L 193.375 174.5 C 193.265625 174.789062 192.988281 174.964844 192.695312 174.964844 " fill-opacity="1" fill-rule="nonzero"/><path fill="#937462" d="M 184.355469 178.097656 C 184.007812 178.097656 183.703125 177.855469 183.636719 177.503906 L 180.914062 163.085938 C 180.839844 162.6875 181.101562 162.304688 181.5 162.230469 C 181.894531 162.15625 182.277344 162.417969 182.351562 162.8125 L 185.074219 177.234375 C 185.148438 177.628906 184.886719 178.011719 184.492188 178.085938 C 184.445312 178.097656 184.398438 178.097656 184.355469 178.097656 " fill-opacity="1" fill-rule="nonzero"/><path fill="#937462" d="M 191.691406 216.96875 C 191.347656 216.96875 191.039062 216.726562 190.976562 216.375 L 188.253906 201.957031 C 188.175781 201.558594 188.441406 201.175781 188.835938 201.101562 C 189.234375 201.023438 189.617188 201.289062 189.691406 201.683594 L 192.414062 216.105469 C 192.488281 216.5 192.226562 216.882812 191.828125 216.957031 C 191.785156 216.96875 191.738281 216.96875 191.691406 216.96875 " fill-opacity="1" fill-rule="nonzero"/><path fill="#937462" d="M 198.890625 188.015625 C 198.542969 188.015625 198.238281 187.773438 198.171875 187.421875 C 198.09375 187.023438 198.355469 186.640625 198.753906 186.566406 L 213.171875 183.84375 C 213.570312 183.769531 213.953125 184.03125 214.027344 184.429688 C 214.101562 184.824219 213.839844 185.210938 213.445312 185.28125 L 199.027344 188.003906 C 198.980469 188.015625 198.933594 188.015625 198.890625 188.015625 " fill-opacity="1" fill-rule="nonzero"/><path fill="#937462" d="M 160.019531 195.355469 C 159.671875 195.355469 159.367188 195.113281 159.300781 194.761719 C 159.222656 194.363281 159.484375 193.980469 159.882812 193.90625 L 174.300781 191.183594 C 174.699219 191.109375 175.082031 191.371094 175.15625 191.769531 C 175.230469 192.164062 174.972656 192.546875 174.574219 192.621094 L 160.15625 195.34375 C 160.109375 195.351562 160.0625 195.355469 160.019531 195.355469 " fill-opacity="1" fill-rule="nonzero"/><path fill="#937462" d="M 198.890625 188.015625 C 198.542969 188.015625 198.238281 187.773438 198.171875 187.421875 C 198.09375 187.023438 198.355469 186.640625 198.753906 186.566406 L 213.171875 183.84375 C 213.570312 183.769531 213.953125 184.03125 214.027344 184.429688 C 214.101562 184.824219 213.839844 185.210938 213.445312 185.28125 L 199.027344 188.003906 C 198.980469 188.015625 198.933594 188.015625 198.890625 188.015625 " fill-opacity="1" fill-rule="nonzero"/><path fill="#937462" d="M 160.019531 195.355469 C 159.671875 195.355469 159.367188 195.113281 159.300781 194.761719 C 159.222656 194.363281 159.484375 193.980469 159.882812 193.90625 L 174.300781 191.183594 C 174.699219 191.109375 175.082031 191.371094 175.15625 191.769531 C 175.230469 192.164062 174.972656 192.546875 174.574219 192.621094 L 160.15625 195.34375 C 160.109375 195.351562 160.0625 195.355469 160.019531 195.355469 " fill-opacity="1" fill-rule="nonzero"/><path fill="#937462" d="M 193.675781 180.046875 C 193.535156 180.046875 193.390625 180.007812 193.265625 179.921875 C 192.929688 179.691406 192.84375 179.238281 193.070312 178.902344 L 201.34375 166.78125 C 201.570312 166.449219 202.027344 166.363281 202.359375 166.59375 C 202.695312 166.820312 202.78125 167.273438 202.554688 167.609375 L 194.28125 179.730469 C 194.140625 179.9375 193.910156 180.046875 193.675781 180.046875 " fill-opacity="1" fill-rule="nonzero"/><path fill="#937462" d="M 171.378906 212.726562 C 171.238281 212.726562 171.09375 212.683594 170.96875 212.597656 C 170.632812 212.367188 170.546875 211.914062 170.773438 211.582031 L 179.046875 199.457031 C 179.273438 199.125 179.730469 199.039062 180.0625 199.269531 C 180.398438 199.496094 180.484375 199.953125 180.257812 200.285156 L 171.984375 212.40625 C 171.84375 212.613281 171.613281 212.726562 171.378906 212.726562 " fill-opacity="1" fill-rule="nonzero"/><path fill="#937462" d="M 209.058594 205.609375 C 208.917969 205.609375 208.773438 205.566406 208.648438 205.484375 L 196.527344 197.210938 C 196.195312 196.984375 196.109375 196.527344 196.335938 196.195312 C 196.566406 195.863281 197.019531 195.773438 197.351562 196.003906 L 209.476562 204.273438 C 209.808594 204.5 209.894531 204.957031 209.667969 205.289062 C 209.523438 205.496094 209.292969 205.609375 209.058594 205.609375 " fill-opacity="1" fill-rule="nonzero"/><path fill="#937462" d="M 176.386719 183.3125 C 176.242188 183.3125 176.097656 183.273438 175.972656 183.1875 L 163.851562 174.917969 C 163.519531 174.6875 163.433594 174.230469 163.660156 173.898438 C 163.890625 173.566406 164.34375 173.476562 164.679688 173.707031 L 176.796875 181.976562 C 177.132812 182.207031 177.21875 182.660156 176.992188 182.992188 C 176.851562 183.199219 176.617188 183.3125 176.386719 183.3125 " fill-opacity="1" fill-rule="nonzero"/><path fill="#937462" d="M 197.136719 183.605469 C 196.894531 183.605469 196.65625 183.488281 196.519531 183.269531 C 196.300781 182.925781 196.398438 182.476562 196.738281 182.257812 L 209.085938 174.328125 C 209.425781 174.113281 209.878906 174.210938 210.097656 174.550781 C 210.316406 174.890625 210.214844 175.34375 209.878906 175.5625 L 197.527344 183.488281 C 197.40625 183.566406 197.269531 183.605469 197.136719 183.605469 " fill-opacity="1" fill-rule="nonzero"/><path fill="#937462" d="M 163.847656 204.976562 C 163.605469 204.976562 163.371094 204.855469 163.230469 204.636719 C 163.011719 204.296875 163.109375 203.84375 163.449219 203.625 L 175.796875 195.699219 C 176.136719 195.480469 176.589844 195.582031 176.808594 195.921875 C 177.027344 196.257812 176.929688 196.714844 176.589844 196.933594 L 164.238281 204.859375 C 164.117188 204.9375 163.980469 204.976562 163.847656 204.976562 " fill-opacity="1" fill-rule="nonzero"/><path fill="#937462" d="M 201.3125 213.144531 C 201.070312 213.144531 200.835938 213.023438 200.695312 212.808594 L 192.769531 200.457031 C 192.550781 200.121094 192.648438 199.664062 192.992188 199.449219 C 193.328125 199.230469 193.785156 199.328125 194 199.667969 L 201.929688 212.015625 C 202.144531 212.355469 202.046875 212.808594 201.707031 213.027344 C 201.585938 213.109375 201.449219 213.144531 201.3125 213.144531 " fill-opacity="1" fill-rule="nonzero"/><path fill="#937462" d="M 179.941406 179.855469 C 179.703125 179.855469 179.464844 179.734375 179.328125 179.519531 L 171.398438 167.171875 C 171.179688 166.832031 171.28125 166.378906 171.621094 166.160156 C 171.960938 165.941406 172.414062 166.039062 172.632812 166.378906 L 180.558594 178.726562 C 180.777344 179.066406 180.679688 179.519531 180.339844 179.742188 C 180.214844 179.820312 180.078125 179.855469 179.941406 179.855469 " fill-opacity="1" fill-rule="nonzero"/><path fill="#937462" d="M 213.304688 195.382812 C 213.257812 195.382812 213.214844 195.375 213.167969 195.367188 L 198.75 192.632812 C 198.355469 192.558594 198.09375 192.175781 198.167969 191.777344 C 198.242188 191.378906 198.625 191.117188 199.023438 191.195312 L 213.441406 193.929688 C 213.835938 194.003906 214.097656 194.386719 214.023438 194.785156 C 213.957031 195.136719 213.648438 195.382812 213.304688 195.382812 " fill-opacity="1" fill-rule="nonzero"/><path fill="#937462" d="M 174.4375 188.003906 C 174.394531 188.003906 174.347656 188.003906 174.300781 187.992188 L 159.886719 185.257812 C 159.488281 185.183594 159.226562 184.800781 159.304688 184.402344 C 159.378906 184.007812 159.761719 183.746094 160.160156 183.816406 L 174.574219 186.554688 C 174.972656 186.628906 175.234375 187.015625 175.160156 187.410156 C 175.09375 187.761719 174.785156 188.003906 174.4375 188.003906 " fill-opacity="1" fill-rule="nonzero"/><path fill="#937462" d="M 181.609375 216.96875 C 181.5625 216.96875 181.519531 216.964844 181.472656 216.953125 C 181.074219 216.878906 180.816406 216.496094 180.890625 216.097656 L 183.625 201.679688 C 183.699219 201.285156 184.082031 201.023438 184.480469 201.097656 C 184.878906 201.171875 185.136719 201.558594 185.0625 201.953125 L 182.328125 216.371094 C 182.261719 216.722656 181.953125 216.96875 181.609375 216.96875 " fill-opacity="1" fill-rule="nonzero"/><path fill="#937462" d="M 188.984375 178.101562 C 188.941406 178.101562 188.894531 178.097656 188.847656 178.089844 C 188.449219 178.011719 188.1875 177.628906 188.265625 177.234375 L 191 162.816406 C 191.074219 162.417969 191.457031 162.160156 191.855469 162.234375 C 192.253906 162.308594 192.511719 162.691406 192.4375 163.089844 L 189.703125 177.507812 C 189.636719 177.855469 189.328125 178.101562 188.984375 178.101562 " fill-opacity="1" fill-rule="nonzero"/><path fill="#937462" d="M 206.964844 189.59375 C 206.964844 200.808594 197.878906 209.898438 186.664062 209.898438 C 175.449219 209.898438 166.359375 200.808594 166.359375 189.59375 C 166.359375 178.378906 175.449219 169.289062 186.664062 169.289062 C 197.878906 169.289062 206.964844 178.378906 206.964844 189.59375 " fill-opacity="1" fill-rule="nonzero"/><path fill="#937462" d="M 186.664062 170.023438 C 175.871094 170.023438 167.09375 178.800781 167.09375 189.59375 C 167.09375 200.386719 175.871094 209.167969 186.664062 209.167969 C 197.457031 209.167969 206.234375 200.386719 206.234375 189.59375 C 206.234375 178.800781 197.457031 170.023438 186.664062 170.023438 Z M 186.664062 210.632812 C 175.0625 210.632812 165.628906 201.191406 165.628906 189.59375 C 165.628906 177.992188 175.0625 168.558594 186.664062 168.558594 C 198.261719 168.558594 207.699219 177.992188 207.699219 189.59375 C 207.699219 201.191406 198.261719 210.632812 186.664062 210.632812 " fill-opacity="1" fill-rule="nonzero"/></svg>